<mxfile host="app.diagrams.net" modified="2022-02-23T21:36:02.701Z" agent="5.0 (Windows NT 10.0; Win64; x64) AppleWebKit/537.36 (KHTML, like Gecko) Chrome/98.0.4758.102 Safari/537.36" etag="BMy_nafh-1uuFD7NmcwO" version="16.6.3" type="github">
  <diagram id="kgpKYQtTHZ0yAKxKKP6v" name="Page-1">
    <mxGraphModel dx="1038" dy="1619" grid="1" gridSize="10" guides="1" tooltips="1" connect="1" arrows="1" fold="1" page="1" pageScale="1" pageWidth="850" pageHeight="1100" math="0" shadow="0">
      <root>
        <mxCell id="0" />
        <mxCell id="1" parent="0" />
        <mxCell id="kz51e8O9OdliozQahk2s-2" value="" style="shape=singleArrow;whiteSpace=wrap;html=1;" parent="1" vertex="1">
          <mxGeometry x="40" y="-920" width="100" height="60" as="geometry" />
        </mxCell>
        <mxCell id="kz51e8O9OdliozQahk2s-14" value="" style="edgeStyle=orthogonalEdgeStyle;rounded=0;orthogonalLoop=1;jettySize=auto;html=1;" parent="1" source="kz51e8O9OdliozQahk2s-4" target="kz51e8O9OdliozQahk2s-7" edge="1">
          <mxGeometry relative="1" as="geometry" />
        </mxCell>
        <mxCell id="kz51e8O9OdliozQahk2s-4" value="ApiGateway&lt;br&gt;+ Load Balancer" style="html=1;" parent="1" vertex="1">
          <mxGeometry x="170" y="-915" width="110" height="50" as="geometry" />
        </mxCell>
        <mxCell id="kz51e8O9OdliozQahk2s-19" value="" style="edgeStyle=orthogonalEdgeStyle;rounded=0;orthogonalLoop=1;jettySize=auto;html=1;" parent="1" source="kz51e8O9OdliozQahk2s-7" target="kz51e8O9OdliozQahk2s-8" edge="1">
          <mxGeometry relative="1" as="geometry" />
        </mxCell>
        <mxCell id="kz51e8O9OdliozQahk2s-22" value="" style="edgeStyle=orthogonalEdgeStyle;rounded=0;orthogonalLoop=1;jettySize=auto;html=1;" parent="1" source="kz51e8O9OdliozQahk2s-7" target="kz51e8O9OdliozQahk2s-21" edge="1">
          <mxGeometry relative="1" as="geometry" />
        </mxCell>
        <mxCell id="kz51e8O9OdliozQahk2s-7" value="Movie" style="html=1;" parent="1" vertex="1">
          <mxGeometry x="350" y="-915" width="110" height="50" as="geometry" />
        </mxCell>
        <mxCell id="kz51e8O9OdliozQahk2s-8" value="Postgres DB" style="ellipse;shape=umlEntity;whiteSpace=wrap;html=1;" parent="1" vertex="1">
          <mxGeometry x="365" y="-810" width="80" height="80" as="geometry" />
        </mxCell>
        <mxCell id="kz51e8O9OdliozQahk2s-12" value="OmdbApi" style="html=1;" parent="1" vertex="1">
          <mxGeometry x="350" y="-1030" width="110" height="50" as="geometry" />
        </mxCell>
        <mxCell id="kz51e8O9OdliozQahk2s-17" value="" style="endArrow=block;startArrow=block;endFill=1;startFill=1;html=1;rounded=0;exitX=0.5;exitY=0;exitDx=0;exitDy=0;entryX=0.5;entryY=1;entryDx=0;entryDy=0;" parent="1" source="kz51e8O9OdliozQahk2s-7" target="kz51e8O9OdliozQahk2s-12" edge="1">
          <mxGeometry width="160" relative="1" as="geometry">
            <mxPoint x="520" y="-930" as="sourcePoint" />
            <mxPoint x="405" y="-970" as="targetPoint" />
          </mxGeometry>
        </mxCell>
        <mxCell id="kz51e8O9OdliozQahk2s-20" value="kafkaConsumer&lt;br&gt;(seding emails)" style="html=1;" parent="1" vertex="1">
          <mxGeometry x="650" y="-915" width="110" height="50" as="geometry" />
        </mxCell>
        <mxCell id="kz51e8O9OdliozQahk2s-24" value="" style="edgeStyle=orthogonalEdgeStyle;rounded=0;orthogonalLoop=1;jettySize=auto;html=1;" parent="1" source="kz51e8O9OdliozQahk2s-21" target="kz51e8O9OdliozQahk2s-20" edge="1">
          <mxGeometry relative="1" as="geometry" />
        </mxCell>
        <mxCell id="kz51e8O9OdliozQahk2s-21" value="&lt;span style=&quot;border-bottom: 1px dotted&quot;&gt;Kafka Queue&lt;br&gt;&lt;/span&gt;" style="ellipse;whiteSpace=wrap;html=1;align=center;" parent="1" vertex="1">
          <mxGeometry x="520" y="-910" width="100" height="40" as="geometry" />
        </mxCell>
      </root>
    </mxGraphModel>
  </diagram>
</mxfile>
